PathFileType	4	(X / Y / Z)	Demo_140333_11_September_2019	Demo_140333_11_September_2019.trc
DataRate	CameraRate	NumFrames	NumMarkers	Units	OrigDataRate	OrigDataStartFrame	OrigNumFrames
50	50	10	25	m	50	290	960
Frame#	Time		SpineBase		SpineMid		Neck		Head		ShoulderLeft		ElbowLeft		WristLeft		HandLeft		ShoulderRight		ElbowRight		WristRight		HandRight		HipLeft		KneeLeft		AnkleLeft		FootLeft		HipRight		KneeRight		AnkleRight		FootRight		SpineShoulder		HandTipLeft		LeftThumb		HandTipRight		ThumbRight		
X1	Y1	Z1	X2	Y2	Z2	X3	Y3	Z3	X4	Y4	Z4	X5	Y5	Z5	X6	Y6	Z6	X7	Y7	Z7	X8	Y8	Z8	X9	Y9	Z9	X10	Y10	Z10	X11	Y11	Z11	X12	Y12	Z12	X13	Y13	Z13	X14	Y14	Z14	X15	Y15	Z15	X16	Y16	Z16	X17	Y17	Z17	X18	Y18	Z18	X19	Y19	Z19	X20	Y20	Z20	X21	Y21	Z21	X22	Y22	Z22	X23	Y23	Z23	X24	Y24	Z24	X25	Y25	Z25	
241	53.974	0.061	0.772	1.718	0.063	1.063	1.688	0.065	1.340	1.647	0.071	1.483	1.617	-0.088	1.231	1.639	-0.147	0.978	1.671	-0.197	0.792	1.618	-0.204	0.745	1.595	0.219	1.212	1.641	0.385	1.047	1.625	0.542	0.906	1.610	0.575	0.871	1.602	-0.013	0.780	1.684	-0.089	0.481	1.721	-0.118	0.169	1.864	-0.119	0.129	1.776	0.133	0.772	1.686	0.114	0.472	1.753	0.084	0.220	1.851	0.082	0.174	1.733	0.064	1.273	1.659	-0.193	0.670	1.598	-0.229	0.744	1.620	0.624	0.824	1.603	0.596	0.827	1.623
242	53.991	0.061	0.772	1.718	0.063	1.063	1.688	0.065	1.340	1.647	0.071	1.483	1.617	-0.088	1.231	1.639	-0.147	0.978	1.671	-0.197	0.792	1.618	-0.204	0.745	1.595	0.219	1.212	1.641	0.385	1.047	1.625	0.542	0.906	1.610	0.575	0.871	1.602	-0.013	0.780	1.684	-0.089	0.481	1.721	-0.118	0.169	1.864	-0.119	0.129	1.776	0.133	0.772	1.686	0.114	0.472	1.753	0.084	0.220	1.851	0.082	0.174	1.733	0.064	1.273	1.659	-0.193	0.670	1.598	-0.229	0.744	1.620	0.624	0.824	1.603	0.596	0.827	1.623
243	54.008	0.061	0.772	1.718	0.063	1.063	1.688	0.065	1.340	1.647	0.071	1.483	1.617	-0.088	1.231	1.639	-0.147	0.978	1.671	-0.197	0.792	1.618	-0.204	0.745	1.595	0.219	1.212	1.641	0.385	1.047	1.625	0.542	0.906	1.610	0.575	0.871	1.602	-0.013	0.780	1.684	-0.089	0.481	1.721	-0.118	0.169	1.864	-0.119	0.129	1.776	0.133	0.772	1.686	0.114	0.472	1.753	0.084	0.220	1.851	0.082	0.174	1.733	0.064	1.273	1.659	-0.193	0.670	1.598	-0.229	0.744	1.620	0.624	0.824	1.603	0.596	0.827	1.623
244	54.025	0.061	0.771	1.718	0.063	1.062	1.688	0.065	1.340	1.647	0.071	1.483	1.617	-0.088	1.231	1.639	-0.147	0.978	1.671	-0.198	0.793	1.614	-0.204	0.746	1.592	0.220	1.213	1.640	0.432	1.149	1.602	0.625	1.091	1.569	0.684	1.080	1.562	-0.013	0.780	1.684	-0.089	0.481	1.721	-0.117	0.174	1.862	-0.118	0.131	1.769	0.133	0.771	1.686	0.114	0.472	1.753	0.084	0.220	1.852	0.082	0.173	1.733	0.064	1.273	1.659	-0.193	0.672	1.592	-0.229	0.745	1.617	0.750	1.038	1.549	0.681	1.049	1.566
245	54.041	0.061	0.771	1.718	0.063	1.062	1.688	0.065	1.340	1.647	0.071	1.483	1.617	-0.088	1.231	1.639	-0.147	0.978	1.671	-0.198	0.793	1.614	-0.204	0.746	1.592	0.220	1.213	1.640	0.432	1.149	1.602	0.625	1.091	1.569	0.684	1.080	1.562	-0.013	0.780	1.684	-0.089	0.481	1.721	-0.117	0.174	1.862	-0.118	0.131	1.769	0.133	0.771	1.686	0.114	0.472	1.753	0.084	0.220	1.852	0.082	0.173	1.733	0.064	1.273	1.659	-0.193	0.672	1.592	-0.229	0.745	1.617	0.750	1.038	1.549	0.681	1.049	1.566
246	54.058	0.061	0.771	1.718	0.063	1.062	1.688	0.065	1.340	1.647	0.071	1.483	1.617	-0.088	1.231	1.639	-0.148	0.978	1.670	-0.198	0.793	1.612	-0.204	0.747	1.590	0.222	1.217	1.640	0.457	1.235	1.587	0.661	1.234	1.541	0.715	1.240	1.535	-0.013	0.780	1.684	-0.089	0.480	1.721	-0.116	0.178	1.861	-0.116	0.133	1.762	0.133	0.771	1.686	0.114	0.472	1.753	0.083	0.220	1.852	0.082	0.173	1.733	0.064	1.272	1.659	-0.193	0.673	1.589	-0.229	0.747	1.614	0.816	1.242	1.512	0.756	1.242	1.527
247	54.075	0.061	0.771	1.718	0.063	1.062	1.688	0.065	1.340	1.647	0.071	1.483	1.617	-0.088	1.231	1.639	-0.148	0.978	1.670	-0.198	0.793	1.612	-0.204	0.747	1.590	0.222	1.217	1.640	0.457	1.235	1.587	0.661	1.234	1.541	0.715	1.240	1.535	-0.013	0.780	1.684	-0.089	0.480	1.721	-0.116	0.178	1.861	-0.116	0.133	1.762	0.133	0.771	1.686	0.114	0.472	1.753	0.083	0.220	1.852	0.082	0.173	1.733	0.064	1.272	1.659	-0.193	0.673	1.589	-0.229	0.747	1.614	0.816	1.242	1.512	0.756	1.242	1.527
248	54.091	0.060	0.771	1.718	0.062	1.062	1.688	0.065	1.340	1.647	0.071	1.483	1.617	-0.088	1.231	1.639	-0.148	0.979	1.670	-0.199	0.794	1.610	-0.203	0.747	1.588	0.226	1.224	1.640	0.472	1.294	1.579	0.661	1.341	1.528	0.714	1.362	1.519	-0.014	0.780	1.683	-0.090	0.481	1.721	-0.116	0.182	1.859	-0.116	0.134	1.757	0.132	0.771	1.685	0.115	0.472	1.753	0.083	0.220	1.852	0.082	0.174	1.733	0.064	1.272	1.659	-0.193	0.674	1.586	-0.229	0.749	1.612	0.809	1.397	1.489	0.782	1.395	1.502
249	54.108	0.060	0.771	1.718	0.062	1.062	1.688	0.065	1.340	1.647	0.071	1.483	1.617	-0.088	1.231	1.639	-0.148	0.979	1.670	-0.199	0.794	1.610	-0.203	0.747	1.588	0.226	1.224	1.640	0.472	1.294	1.579	0.661	1.341	1.528	0.714	1.362	1.519	-0.014	0.780	1.683	-0.090	0.481	1.721	-0.116	0.182	1.859	-0.116	0.134	1.757	0.132	0.771	1.685	0.115	0.472	1.753	0.083	0.220	1.852	0.082	0.174	1.733	0.064	1.272	1.659	-0.193	0.674	1.586	-0.229	0.749	1.612	0.809	1.397	1.489	0.782	1.395	1.502
250	54.125	0.059	0.772	1.718	0.062	1.062	1.688	0.064	1.340	1.647	0.071	1.483	1.617	-0.088	1.231	1.639	-0.148	0.979	1.669	-0.199	0.795	1.608	-0.203	0.748	1.587	0.231	1.233	1.639	0.464	1.316	1.581	0.647	1.448	1.516	0.671	1.451	1.513	-0.015	0.781	1.683	-0.090	0.481	1.721	-0.116	0.185	1.858	-0.115	0.136	1.752	0.132	0.772	1.685	0.115	0.473	1.753	0.083	0.220	1.852	0.082	0.173	1.734	0.064	1.272	1.660	-0.193	0.674	1.584	-0.230	0.749	1.611	0.758	1.514	1.476	0.693	1.485	1.506
